HIERARCHY
ROOT mixamorig:Hips
{
  OFFSET 0.000000 0.000000 0.000000
  CHANNELS 6 Xposition Yposition Zposition Zrotation Xrotation Yrotation
  JOINT mixamorig:Spine
  {
    OFFSET 0.000000 9.878500 1.258800
    CHANNELS 3 Zrotation Xrotation Yrotation
    JOINT mixamorig:Spine1
    {
      OFFSET 0.000000 11.272100 0.038100
      CHANNELS 3 Zrotation Xrotation Yrotation
      JOINT mixamorig:Spine2
      {
        OFFSET 0.000000 10.749001 -0.597600
        CHANNELS 3 Zrotation Xrotation Yrotation
        JOINT mixamorig:Neck
        {
          OFFSET 0.000000 12.015200 -1.691700
          CHANNELS 3 Zrotation Xrotation Yrotation
          JOINT mixamorig:Head
          {
            OFFSET 0.000000 8.810500 2.213900
            CHANNELS 3 Zrotation Xrotation Yrotation
            End Site
            {
              OFFSET 0.000000 18.232300 3.738000
            }
          }
        }
        JOINT mixamorig:LeftShoulder
        {
          OFFSET 6.002800 8.887900 -2.628900
          CHANNELS 3 Zrotation Xrotation Yrotation
          JOINT mixamorig:LeftArm
          {
            OFFSET 12.046300 0.000000 0.000000
            CHANNELS 3 Zrotation Xrotation Yrotation
            JOINT mixamorig:LeftForeArm
            {
              OFFSET 27.876501 0.000000 0.000000
              CHANNELS 3 Zrotation Xrotation Yrotation
              JOINT mixamorig:LeftHand
              {
                OFFSET 25.438500 0.000000 0.000000
                CHANNELS 3 Zrotation Xrotation Yrotation
                End Site
                {
                  OFFSET 10.0 0.0 0.0
                }
              }
            }
          }
        }
        JOINT mixamorig:RightShoulder
        {
          OFFSET -6.002800 8.887900 -2.628900
          CHANNELS 3 Zrotation Xrotation Yrotation
          JOINT mixamorig:RightArm
          {
            OFFSET -12.046300 0.000000 0.000000
            CHANNELS 3 Zrotation Xrotation Yrotation
            JOINT mixamorig:RightForeArm
            {
              OFFSET -27.876501 0.000000 0.000000
              CHANNELS 3 Zrotation Xrotation Yrotation
              JOINT mixamorig:RightHand
              {
                OFFSET -25.438500 0.000000 0.000000
                CHANNELS 3 Zrotation Xrotation Yrotation
                End Site
                {
                  OFFSET -10.0 0.0 0.0
                }
              }
            }
          }
        }
      }
    }
  }
}
MOTION
Frames: 34
Frame Time: 0.033333
49.2511 -104.6842 -0.0092 0.0000 0.0000 0.0000 0.3965 -21.1231 -0.0739 0.0000 0.0000 0.0000 0.0000 0.0000 0.0000 0.0000 0.0000 0.0000 0.0000 0.0000 0.0000 0.0000 0.0000 0.0000 -79.3515 -8.8977 -10.7168 -79.3111 29.0672 34.7345 0.0000 0.0000 0.0000 0.0000 0.0000 0.0000 71.6848 20.4306 -28.0153 6.3070 7.1493 -97.1801 0.0000 0.0000 0.0000
49.2938 -104.8341 -0.0105 0.0000 0.0000 0.0000 0.4667 -20.0663 -0.0826 0.0000 0.0000 0.0000 0.0000 0.0000 0.0000 0.0000 0.0000 0.0000 0.0000 0.0000 0.0000 0.0000 0.0000 0.0000 -73.6372 -17.6678 -23.4566 -93.6505 7.0201 6.5875 0.0000 0.0000 0.0000 0.0000 0.0000 0.0000 68.9178 22.1135 -31.7894 1.2878 1.4698 -97.5539 0.0000 0.0000 0.0000
49.4558 -104.8226 -0.0121 0.0000 0.0000 0.0000 0.6900 -19.4846 -0.1185 0.0000 0.0000 0.0000 0.0000 0.0000 0.0000 0.0000 0.0000 0.0000 0.0000 0.0000 0.0000 0.0000 0.0000 0.0000 -71.7643 -19.3673 -26.5450 -92.2505 4.9055 4.7167 0.0000 0.0000 0.0000 0.0000 0.0000 0.0000 64.6860 24.0842 -37.2359 -3.1101 -3.4631 -96.1505 0.0000 0.0000 0.0000
49.4494 -105.0742 -0.0164 0.0000 0.0000 0.0000 0.7194 -15.9499 -0.1008 0.0000 0.0000 0.0000 0.0000 0.0000 0.0000 0.0000 0.0000 0.0000 0.0000 0.0000 0.0000 0.0000 0.0000 0.0000 -73.2722 -18.1062 -24.1869 -89.7009 -6.4182 -6.4518 0.0000 0.0000 0.0000 0.0000 0.0000 0.0000 64.4121 23.8986 -37.1433 -10.5838 -11.4951 -94.7565 0.0000 0.0000 0.0000
49.5608 -105.0720 -0.0200 0.0000 0.0000 0.0000 0.8208 -9.4303 -0.0677 0.0000 0.0000 0.0000 0.0000 0.0000 0.0000 0.0000 0.0000 0.0000 0.0000 0.0000 0.0000 0.0000 0.0000 0.0000 -73.2239 -18.1959 -24.3260 -85.3269 -15.2530 -16.5334 0.0000 0.0000 0.0000 0.0000 0.0000 0.0000 58.7468 25.2991 -43.4784 -23.5414 -22.8812 -88.3251 0.0000 0.0000 0.0000
49.5680 -105.0770 -0.0211 0.0000 0.0000 0.0000 0.7989 -5.9062 -0.0412 0.0000 0.0000 0.0000 0.0000 0.0000 0.0000 0.0000 0.0000 0.0000 0.0000 0.0000 0.0000 0.0000 0.0000 0.0000 -75.5010 -16.2068 -20.8389 -86.9212 -9.8739 -10.4164 0.0000 0.0000 0.0000 0.0000 0.0000 0.0000 62.7290 23.8235 -38.1783 -31.6874 -27.6487 -81.8559 0.0000 0.0000 0.0000
49.5595 -105.0277 -0.0196 0.0000 0.0000 0.0000 0.6433 -8.0676 -0.0454 0.0000 0.0000 0.0000 0.0000 0.0000 0.0000 0.0000 0.0000 0.0000 0.0000 0.0000 0.0000 0.0000 0.0000 0.0000 -76.2453 -15.5568 -19.7490 -86.6670 -8.6677 -9.1850 0.0000 0.0000 0.0000 0.0000 0.0000 0.0000 58.5841 24.6633 -42.5809 -36.7825 -29.7302 -77.2016 0.0000 0.0000 0.0000
49.6011 -105.0180 -0.0189 0.0000 0.0000 0.0000 0.6346 -9.0975 -0.0505 0.0000 0.0000 0.0000 0.0000 0.0000 0.0000 0.0000 0.0000 0.0000 0.0000 0.0000 0.0000 0.0000 0.0000 0.0000 -75.1669 -17.1350 -22.1509 -82.4393 -15.9060 -18.1217 0.0000 0.0000 0.0000 0.0000 0.0000 0.0000 58.0206 24.5135 -42.7858 -41.8698 -31.6252 -73.0248 0.0000 0.0000 0.0000
49.6240 -105.2763 -0.0198 0.0000 0.0000 0.0000 0.6294 -10.7718 -0.0593 0.0000 0.0000 0.0000 0.0000 0.0000 0.0000 0.0000 0.0000 0.0000 0.0000 0.0000 0.0000 0.0000 0.0000 0.0000 -75.7938 -16.6868 -21.3403 -84.4983 -10.6653 -11.7348 0.0000 0.0000 0.0000 0.0000 0.0000 0.0000 50.4740 25.5415 -51.3626 -41.5911 -31.1942 -72.6347 0.0000 0.0000 0.0000
49.6033 -105.3800 -0.0197 0.0000 0.0000 0.0000 0.5920 -11.0841 -0.0574 0.0000 0.0000 0.0000 0.0000 0.0000 0.0000 0.0000 0.0000 0.0000 0.0000 0.0000 0.0000 0.0000 0.0000 0.0000 -75.2405 -17.3240 -22.3637 -82.1492 -13.7250 -15.7236 0.0000 0.0000 0.0000 0.0000 0.0000 0.0000 45.1911 25.3864 -56.8456 -38.0509 -29.8501 -75.4077 0.0000 0.0000 0.0000
49.5991 -105.3759 -0.0208 0.0000 0.0000 0.0000 0.5505 -10.1803 -0.0490 0.0000 0.0000 0.0000 0.0000 0.0000 0.0000 0.0000 0.0000 0.0000 0.0000 0.0000 0.0000 0.0000 0.0000 0.0000 -74.6100 -17.9388 -23.4070 -81.2557 -14.8175 -17.2366 0.0000 0.0000 0.0000 0.0000 0.0000 0.0000 46.2981 25.2654 -55.3280 -39.7598 -30.6142 -74.2460 0.0000 0.0000 0.0000
49.5973 -105.4116 -0.0200 0.0000 0.0000 0.0000 0.5360 -12.8355 -0.0603 0.0000 0.0000 0.0000 0.0000 0.0000 0.0000 0.0000 0.0000 0.0000 0.0000 0.0000 0.0000 0.0000 0.0000 0.0000 -72.4228 -19.8884 -26.9317 -77.0894 -20.0736 -25.0497 0.0000 0.0000 0.0000 0.0000 0.0000 0.0000 44.8987 25.1471 -56.7221 -40.9202 -31.1758 -73.5743 0.0000 0.0000 0.0000
49.5460 -105.5677 -0.0220 0.0000 0.0000 0.0000 0.4716 -12.5864 -0.0520 0.0000 0.0000 0.0000 0.0000 0.0000 0.0000 0.0000 0.0000 0.0000 0.0000 0.0000 0.0000 0.0000 0.0000 0.0000 -73.5408 -19.0345 -25.2895 -81.2776 -15.6703 -18.2174 0.0000 0.0000 0.0000 0.0000 0.0000 0.0000 44.2597 25.0632 -57.3199 -41.7538 -31.7472 -73.4140 0.0000 0.0000 0.0000
49.5251 -105.6777 -0.0219 0.0000 0.0000 0.0000 0.4329 -12.5872 -0.0477 0.0000 0.0000 0.0000 0.0000 0.0000 0.0000 0.0000 0.0000 0.0000 0.0000 0.0000 0.0000 0.0000 0.0000 0.0000 -72.1827 -20.1410 -27.3836 -78.8707 -18.8132 -22.7777 0.0000 0.0000 0.0000 0.0000 0.0000 0.0000 44.8736 25.0542 -56.5689 -41.0812 -31.6679 -74.2455 0.0000 0.0000 0.0000
49.4548 -105.7106 -0.0227 0.0000 0.0000 0.0000 0.3615 -14.5128 -0.0460 0.0000 0.0000 0.0000 0.0000 0.0000 0.0000 0.0000 0.0000 0.0000 0.0000 0.0000 0.0000 0.0000 0.0000 0.0000 -69.8386 -21.7554 -30.7808 -79.4050 -18.3463 -22.0123 0.0000 0.0000 0.0000 0.0000 0.0000 0.0000 39.3523 24.3804 -62.2754 -35.2789 -29.3514 -78.9512 0.0000 0.0000 0.0000
49.3632 -106.0037 -0.0220 0.0000 0.0000 0.0000 0.2623 -13.9726 -0.0321 0.0000 0.0000 0.0000 0.0000 0.0000 0.0000 0.0000 0.0000 0.0000 0.0000 0.0000 0.0000 0.0000 0.0000 0.0000 -69.5056 -21.9647 -31.2534 -76.5740 -21.0135 -26.4430 0.0000 0.0000 0.0000 0.0000 0.0000 0.0000 43.8035 24.9671 -57.6818 -39.2962 -31.2519 -76.1496 0.0000 0.0000 0.0000
49.3849 -106.4796 -0.0204 0.0000 0.0000 0.0000 0.2815 -15.2813 -0.0378 0.0000 0.0000 0.0000 0.0000 0.0000 0.0000 0.0000 0.0000 0.0000 0.0000 0.0000 0.0000 0.0000 0.0000 0.0000 -69.1380 -22.2022 -31.7892 -78.6521 -19.4871 -23.6758 0.0000 0.0000 0.0000 0.0000 0.0000 0.0000 43.7701 24.9458 -57.6800 -37.7297 -30.6512 -77.4618 0.0000 0.0000 0.0000
49.2723 -106.4562 -0.0204 0.0000 0.0000 0.0000 0.1802 -15.3236 -0.0242 0.0000 0.0000 0.0000 0.0000 0.0000 0.0000 0.0000 0.0000 0.0000 0.0000 0.0000 0.0000 0.0000 0.0000 0.0000 -70.3394 -21.7515 -30.5041 -80.4854 -17.5827 -20.7110 0.0000 0.0000 0.0000 0.0000 0.0000 0.0000 39.4915 24.4153 -62.1564 -34.9775 -29.3983 -79.5597 0.0000 0.0000 0.0000
49.2804 -106.4946 -0.0196 0.0000 0.0000 0.0000 0.2109 -16.5889 -0.0308 0.0000 0.0000 0.0000 0.0000 0.0000 0.0000 0.0000 0.0000 0.0000 0.0000 0.0000 0.0000 0.0000 0.0000 0.0000 -69.8134 -22.0737 -31.2339 -79.4119 -19.2208 -23.0502 0.0000 0.0000 0.0000 0.0000 0.0000 0.0000 40.7796 24.6590 -60.9153 -36.1575 -30.0174 -78.7939 0.0000 0.0000 0.0000
49.2730 -106.4474 -0.0202 0.0000 0.0000 0.0000 0.2226 -13.2838 -0.0259 0.0000 0.0000 0.0000 0.0000 0.0000 0.0000 0.0000 0.0000 0.0000 0.0000 0.0000 0.0000 0.0000 0.0000 0.0000 -72.2997 -20.5098 -27.8186 -79.9095 -18.5490 -22.0601 0.0000 0.0000 0.0000 0.0000 0.0000 0.0000 41.8618 24.8514 -59.8895 -39.1430 -31.3985 -76.6590 0.0000 0.0000 0.0000
49.2689 -106.3097 -0.0203 0.0000 0.0000 0.0000 0.2531 -14.0815 -0.0313 0.0000 0.0000 0.0000 0.0000 0.0000 0.0000 0.0000 0.0000 0.0000 0.0000 0.0000 0.0000 0.0000 0.0000 0.0000 -71.3823 -21.1288 -29.1087 -79.1245 -19.3414 -23.3091 0.0000 0.0000 0.0000 0.0000 0.0000 0.0000 42.0659 24.9327 -59.7927 -37.8387 -30.7933 -77.5597 0.0000 0.0000 0.0000
49.2522 -106.2925 -0.0203 0.0000 0.0000 0.0000 0.3012 -13.3564 -0.0353 0.0000 0.0000 0.0000 0.0000 0.0000 0.0000 0.0000 0.0000 0.0000 0.0000 0.0000 0.0000 0.0000 0.0000 0.0000 -74.2524 -18.8448 -24.7293 -84.5757 -11.3682 -12.4903 0.0000 0.0000 0.0000 0.0000 0.0000 0.0000 44.1276 25.2073 -57.7661 -40.9644 -32.0378 -75.0931 0.0000 0.0000 0.0000
49.2118 -106.3140 -0.0202 0.0000 0.0000 0.0000 0.2639 -11.2482 -0.0260 0.0000 0.0000 0.0000 0.0000 0.0000 0.0000 0.0000 0.0000 0.0000 0.0000 0.0000 0.0000 0.0000 0.0000 0.0000 -75.6986 -17.5591 -22.4824 -84.9210 -10.6037 -11.5816 0.0000 0.0000 0.0000 0.0000 0.0000 0.0000 43.9343 25.1956 -57.9783 -39.9420 -31.6252 -75.8614 0.0000 0.0000 0.0000
49.1833 -106.3535 -0.0202 0.0000 0.0000 0.0000 0.2448 -11.4674 -0.0246 0.0000 0.0000 0.0000 0.0000 0.0000 0.0000 0.0000 0.0000 0.0000 0.0000 0.0000 0.0000 0.0000 0.0000 0.0000 -71.0188 -21.4332 -29.7090 -79.2766 -19.5357 -23.4794 0.0000 0.0000 0.0000 0.0000 0.0000 0.0000 43.8593 25.2108 -58.1004 -38.9763 -31.2276 -76.5964 0.0000 0.0000 0.0000
49.1416 -106.3707 -0.0200 0.0000 0.0000 0.0000 0.2058 -14.0153 -0.0253 0.0000 0.0000 0.0000 0.0000 0.0000 0.0000 0.0000 0.0000 0.0000 0.0000 0.0000 0.0000 0.0000 0.0000 0.0000 -70.1624 -22.0078 -30.9515 -81.5679 -17.2866 -19.9863 0.0000 0.0000 0.0000 0.0000 0.0000 0.0000 41.7472 24.9871 -60.3178 -36.1941 -29.9765 -78.6529 0.0000 0.0000 0.0000
49.1469 -106.7064 -0.0199 0.0000 0.0000 0.0000 0.2500 -15.1604 -0.0333 0.0000 0.0000 0.0000 0.0000 0.0000 0.0000 0.0000 0.0000 0.0000 0.0000 0.0000 0.0000 0.0000 0.0000 0.0000 -68.5401 -22.9204 -33.1380 -80.9431 -18.2342 -21.3043 0.0000 0.0000 0.0000 0.0000 0.0000 0.0000 43.8958 25.3132 -58.2595 -36.5199 -30.1069 -78.3696 0.0000 0.0000 0.0000
49.1317 -106.6078 -0.0210 0.0000 0.0000 0.0000 0.2727 -16.0963 -0.0386 0.0000 0.0000 0.0000 0.0000 0.0000 0.0000 0.0000 0.0000 0.0000 0.0000 0.0000 0.0000 0.0000 0.0000 0.0000 -68.9107 -22.6947 -32.6060 -83.2051 -15.3350 -17.2432 0.0000 0.0000 0.0000 0.0000 0.0000 0.0000 39.1077 24.6966 -63.2964 -33.5408 -28.6095 -80.4712 0.0000 0.0000 0.0000
49.1097 -106.5745 -0.0208 0.0000 0.0000 0.0000 0.3336 -15.3404 -0.0449 0.0000 0.0000 0.0000 0.0000 0.0000 0.0000 0.0000 0.0000 0.0000 0.0000 0.0000 0.0000 0.0000 0.0000 0.0000 -70.7188 -21.6548 -30.1687 -83.2355 -15.5177 -17.4388 0.0000 0.0000 0.0000 0.0000 0.0000 0.0000 41.7155 25.3050 -61.0115 -37.8751 -30.8838 -77.6743 0.0000 0.0000 0.0000
49.1198 -106.5561 -0.0201 0.0000 0.0000 0.0000 0.4488 -11.2160 -0.0441 0.0000 0.0000 0.0000 0.0000 0.0000 0.0000 0.0000 0.0000 0.0000 0.0000 0.0000 0.0000 0.0000 0.0000 0.0000 -73.1806 -19.8786 -26.5617 -83.1315 -15.4551 -17.4000 0.0000 0.0000 0.0000 0.0000 0.0000 0.0000 46.7289 25.9658 -56.1765 -37.9370 -31.0696 -77.9286 0.0000 0.0000 0.0000
49.1203 -106.5638 -0.0202 0.0000 0.0000 0.0000 0.5162 -5.5749 -0.0251 0.0000 0.0000 0.0000 0.0000 0.0000 0.0000 0.0000 0.0000 0.0000 0.0000 0.0000 0.0000 0.0000 0.0000 0.0000 -77.3226 -15.6211 -19.4580 -85.8256 -10.0791 -10.8372 0.0000 0.0000 0.0000 0.0000 0.0000 0.0000 52.8798 26.0132 -49.8309 -40.3736 -32.2831 -76.4185 0.0000 0.0000 0.0000
49.0981 -106.6096 -0.0202 0.0000 0.0000 0.0000 0.5241 -4.8745 -0.0223 0.0000 0.0000 0.0000 0.0000 0.0000 0.0000 0.0000 0.0000 0.0000 0.0000 0.0000 0.0000 0.0000 0.0000 0.0000 -77.5063 -15.3767 -19.0939 -87.3275 -2.7987 -2.9323 0.0000 0.0000 0.0000 0.0000 0.0000 0.0000 55.0903 25.9369 -47.6457 -38.9585 -31.7594 -77.6164 0.0000 0.0000 0.0000
49.0790 -106.6050 -0.0203 0.0000 0.0000 0.0000 0.5754 -6.6030 -0.0332 0.0000 0.0000 0.0000 0.0000 0.0000 0.0000 0.0000 0.0000 0.0000 0.0000 0.0000 0.0000 0.0000 0.0000 0.0000 -78.6209 -13.6400 -16.6202 -87.2897 -3.1527 -3.3054 0.0000 0.0000 0.0000 0.0000 0.0000 0.0000 52.4941 26.4072 -50.8913 -30.9150 -27.6853 -83.4087 0.0000 0.0000 0.0000
49.0442 -106.5247 -0.0209 0.0000 0.0000 0.0000 0.6184 -6.9848 -0.0377 0.0000 0.0000 0.0000 0.0000 0.0000 0.0000 0.0000 0.0000 0.0000 0.0000 0.0000 0.0000 0.0000 0.0000 0.0000 -80.8587 -9.0746 -10.6432 -87.3982 -1.1956 -1.2511 0.0000 0.0000 0.0000 0.0000 0.0000 0.0000 57.3376 26.1512 -46.0295 -37.6139 -31.5012 -79.2602 0.0000 0.0000 0.0000
48.9457 -106.4352 -0.0207 0.0000 0.0000 0.0000 0.5612 -7.8254 -0.0384 0.0000 0.0000 0.0000 0.0000 0.0000 0.0000 0.0000 0.0000 0.0000 0.0000 0.0000 0.0000 0.0000 0.0000 0.0000 -79.8773 -11.0530 -13.1837 -87.2063 -5.5882 -5.8671 0.0000 0.0000 0.0000 0.0000 0.0000 0.0000 54.8809 26.6325 -49.0101 -36.8889 -31.3292 -80.1140 0.0000 0.0000 0.0000
